<?xml version="1.0" encoding="utf-8"?>
<!-- Generator: Adobe Illustrator 16.0.0, SVG Export Plug-In . SVG Version: 6.00 Build 0)  -->
<!DOCTYPE svg PUBLIC "-//W3C//DTD SVG 1.1//EN" "http://www.w3.org/Graphics/SVG/1.1/DTD/svg11.dtd">
<svg version="1.1" id="Layer_1" xmlns="http://www.w3.org/2000/svg" xmlns:xlink="http://www.w3.org/1999/xlink" x="0px" y="0px"
	 width="299.143px" height="299.143px" viewBox="0 0 299.143 299.143" enable-background="new 0 0 299.143 299.143"
	 xml:space="preserve">
<g>
	<circle fill="#98DDC2" cx="149.571" cy="149.571" r="149.571"/>
	<polygon fill="#55BB91" points="96.281,89.649 80.418,95.142 77.978,66.771 	"/>
	<path fill="none" stroke="#55BB91" stroke-miterlimit="10" d="M85.91,92.7"/>
	<g>
		<path fill="#55BB91" d="M123.737,79.583c0,0,10.374-9.762,20.439,0.304c0,5.187-0.61,14.643-0.61,14.643
			s-10.068-2.746-15.864,1.221C126.787,91.785,123.737,79.583,123.737,79.583z"/>
		
			<ellipse transform="matrix(0.9997 -0.0234 0.0234 0.9997 -2.1818 3.2012)" fill="#C4F2D8" cx="135.481" cy="94.684" rx="8.084" ry="1.983"/>
	</g>
	<path fill="#55BB91" d="M131.668,98.856l-0.916-3.874c0,0,3.966-1.589,9.152-0.466c0.61,1.281,1.524,4.34,1.524,4.34H131.668z"/>
	<path fill="#98DDC2" d="M128.312,92.157c-0.17,0-0.325-0.117-0.363-0.291l-2.44-10.981c-0.043-0.202,0.082-0.401,0.282-0.444
		c0.2-0.043,0.398,0.082,0.443,0.282l2.44,10.982c0.043,0.2-0.082,0.399-0.282,0.443C128.367,92.155,128.339,92.157,128.312,92.157z
		"/>
	<path fill="#98DDC2" d="M130.447,91.853c-0.18,0-0.34-0.134-0.366-0.319l-1.83-12.661c-0.03-0.203,0.111-0.391,0.314-0.421
		c0.197-0.027,0.392,0.112,0.42,0.315l1.831,12.66c0.031,0.204-0.111,0.392-0.314,0.42
		C130.483,91.851,130.465,91.853,130.447,91.853z"/>
	<path fill="#98DDC2" d="M132.583,91.242c-0.188,0-0.347-0.141-0.368-0.333l-1.372-13.27c-0.021-0.205,0.125-0.387,0.33-0.407
		c0.212-0.025,0.388,0.126,0.409,0.331l1.373,13.271c0.021,0.204-0.128,0.386-0.333,0.407
		C132.609,91.242,132.596,91.242,132.583,91.242z"/>
	<path fill="#98DDC2" d="M134.719,90.856c-0.196,0-0.358,0.195-0.372-0.002l-0.915-14.165c-0.012-0.206,0.142-0.295,0.346-0.308
		c0.213-0.011,0.382,0.184,0.395,0.389l0.916,14.013c0.012,0.205-0.143,0.072-0.348,0.072
		C134.734,90.856,134.727,90.856,134.719,90.856z"/>
	<path fill="#98DDC2" d="M136.854,90.856c-0.203,0-0.37,0.028-0.372-0.174l-0.153-13.631c-0.001-0.206,0.164-0.324,0.368-0.327
		c0.208,0,0.374,0.186,0.375,0.391l0.153,13.546c0.001,0.205-0.162,0.196-0.367,0.196C136.855,90.856,136.855,90.856,136.854,90.856
		z"/>
	<path fill="#98DDC2" d="M138.99,90.856c-0.01,0-0.019,0-0.026,0c-0.205,0-0.358,0-0.344-0.206l0.916-12.412
		c0.014-0.204,0.202-0.299,0.397-0.297c0.204,0.016,0.36,0.22,0.343,0.424l-0.915,12.325
		C139.347,90.887,139.183,90.856,138.99,90.856z"/>
	<path fill="#98DDC2" d="M141.278,91.853c-0.015,0-0.031-0.002-0.045-0.004c-0.204-0.025-0.35-0.211-0.324-0.414l1.373-11.287
		c0.023-0.203,0.208-0.352,0.413-0.324c0.204,0.025,0.35,0.209,0.325,0.413l-1.373,11.289
		C141.624,91.714,141.464,91.853,141.278,91.853z"/>
	<g>
		<g>
			<polygon fill="#C4F2D8" points="80.418,95.142 124.347,223.268 141.43,218.387 96.281,89.649 88.35,87.21 85.91,92.7 
				81.029,89.04 			"/>
			<path fill="#55BB91" d="M123.873,224.175L79.663,95.229l0.758-7.574l5.188,3.894l2.331-5.242l8.919,2.744l0.123,0.354
				l45.41,129.479L123.873,224.175z M81.173,95.054l43.647,127.306l15.648-4.471L95.705,90.25l-6.943-2.137l-2.552,5.741
				l-4.574-3.429L81.173,95.054z"/>
		</g>
		
			<rect x="39.503" y="156.878" transform="matrix(0.3203 0.9473 -0.9473 0.3203 222.3432 4.8787)" fill="#55BB91" width="136.538" height="0.991"/>
		<g>
			<path fill="#C4F2D8" d="M205.207,95.844c0,0-13.806-27.868,8.741-32.625c11.134-2.215,23.803-11.303,22.102-16.664
				c5.155,44.256-12.536,51.953-12.536,51.953L205.207,95.844z"/>
			<path fill="#55BB91" d="M221.567,102.383c1.361-2.398,1.797-3.943,1.797-3.943s-5.583-12.813-19.506-6.783
				c-0.225,0.481-0.694,1.877-1.429,3.954C202.169,96.349,221.481,102.532,221.567,102.383z"/>
			<path fill="#C4F2D8" d="M160.992,222.952c0,0-7.511,24.762,10.439,2.991c4.554-8.854,50.467-121.475,50.467-121.475
				s-4.854-16.718-21.013-8.253C197.753,102.905,160.992,222.952,160.992,222.952z"/>
			<path fill="#98DDC2" d="M202.357,98.242l-25.16,78.8l32.37-80.359C209.567,96.683,206.369,95.129,202.357,98.242z"/>
		</g>
		<g>
			<polygon fill="#C4F2D8" points="114.433,100.327 160.877,96.101 162.175,102.856 159.734,102.856 168.275,176.18 
				131.973,180.353 117.33,105.563 115.5,105.233 			"/>
			<path fill="#98DDC2" d="M118.856,105.208l33.557-3.355C152.413,101.853,120.075,107.343,118.856,105.208z"/>
			<path fill="#98DDC2" d="M126.177,118.173c0,0,7.779,26.54,7.015,32.184c3.356,0,27.456,0.152,27.763-2.746
				c-0.307-2.747-5.188-34.625-5.188-34.625S133.042,113.141,126.177,118.173z"/>
			<path display="none" fill="#55BB91" d="M123.737,123.055c0,0,7.779,26.539,7.016,32.183c3.357,0,27.455,0.153,27.76-2.746
				c-0.305-2.745-5.186-34.624-5.186-34.624S130.601,118.021,123.737,123.055z"/>
		</g>
		<path fill="#55BB91" d="M208.548,160.22l-126.91-0.405c-23.184,3.661-2.44,13.423-2.44,13.423l27.662,90.297
			c0,0,39.862,23.59,81.35-0.813c4.072-25.117,18.711-86.23,18.711-86.23C225.631,169.168,208.548,160.22,208.548,160.22z"/>
	</g>
	<rect x="147.424" y="226.833" fill="none" width="62.898" height="60.422"/>
	<text transform="matrix(1 0 0 1 147.4238 258.2139)" fill="#F7AB63" font-family="'icomoon'" font-size="35.6594"></text>
</g>
</svg>
