<?xml version="1.0" encoding="utf-8"?>
<!-- Generator: Adobe Illustrator 16.0.0, SVG Export Plug-In . SVG Version: 6.00 Build 0)  -->
<!DOCTYPE svg PUBLIC "-//W3C//DTD SVG 1.1//EN" "http://www.w3.org/Graphics/SVG/1.1/DTD/svg11.dtd">
<svg version="1.1" id="Layer_1" xmlns="http://www.w3.org/2000/svg" xmlns:xlink="http://www.w3.org/1999/xlink" x="0px" y="0px"
	 width="298.667px" height="298.667px" viewBox="0 0 298.667 298.667" enable-background="new 0 0 298.667 298.667"
	 xml:space="preserve">
<g>
	<circle fill="#F7AB63" cx="149.333" cy="149.333" r="149.333"/>
	<g>
		<path fill="#F7BF8A" d="M73.216,111.995v114.394c0,0-3.053,26.034,29.341,26.735c37.315,0.81,99.651-0.876,99.651-0.876
			s25.008,2.63,25.008-29.805c0-32.434,0-113.082,0-113.082s-46.381,14.21-46.381-46.79c-14.083,0-64.787,0-64.787,0
			S115.216,111.995,73.216,111.995z"/>
		<path fill="#F7BF8A" d="M121.102,65.794l-4.486-2.082c0.669-1.438,16.319-34.66,35.18-34.66c0.309,0,0.616,0.009,0.926,0.028
			c10.822,0.627,20.002,12.131,27.286,34.192l-4.695,1.551c-4.525-13.711-12.167-30.184-22.876-30.808
			C139.173,33.218,125.333,56.694,121.102,65.794z"/>
		<path fill="#F7BF8A" d="M224.226,172.797c0,0,24.558,3.405,29.84-12.939c5.281-16.347,19.014-12.261,19.014-12.261l0.177,5.704
			c0,0-8.978-1.616-14.174,9.281c-7.959,16.699-21.918,19.523-34.592,16.344C211.814,175.75,224.226,172.797,224.226,172.797z"/>
		<path fill="#F7BF8A" d="M78.564,174.908c0,0-23.805,3.409-29.088-12.938c-5.28-16.346-18.26-12.26-18.26-12.26v5.902
			c0,0,8.049-1.816,13.243,9.082c7.96,16.701,21.541,19.524,34.216,16.347C91.351,177.863,78.564,174.908,78.564,174.908z"/>
		<path fill="#FFEFE3" d="M87.216,165.849v55.033c0,0-2.154,15.688,24.954,15.688c27.113,0,80.631,0,80.631,0
			s16.902,2.121,16.902-18.812c0-20.93-0.507-52.57-0.507-52.57L87.216,165.849z"/>
		<path fill="#F7AB63" d="M140.722,200.087c0,0,6.753-12.129,19.194,0c2.13,4.854,12.44,14.963,0.71,30.731
			c-3.198,0.809-17.771,2.023-18.48-0.809C140.367,227.988,131.836,212.218,140.722,200.087z"/>
		<path fill="#55BB91" d="M147.891,178.052c0,0-15.336-7.175-21.849,6.572c3.039-1.619,9.044-6.017,15.123-2.378
			c-3.309-0.353-8.963-1.363-10.265,5.914c2.605-2.425,8.896-4.446,10.631-2.021c-2.603,1.213-13.674,0.203-11.28,14.751
			c1.732-3.233-0.88-9.491,9.758-9.899c-3.476,0.608-2.823,5.056-1.957,7.073c6.299-5.051,5.647-5.455,6.083,1.619
			c3.04-2.829,4.124-1.818,4.124-1.818s2.169,4.043,5.643,4.043c-2.605-3.234-1.736-5.861-1.736-5.861s4.558,4.041,7.597,4.445
			c-2.387-2.223-4.775-5.457-1.735-7.479c3.039-2.022,8.03-2.628,8.465,2.628c-0.435-8.087-3.258-10.512-7.165-8.896
			c3.472-4.043,10.854-4.446,10.854-2.426c-0.866-5.256-13.025-1.617-13.025-1.617s-1.232-7.479,8.32-7.883
			c-7.381-0.811-14.258,0.198-14.258,3.031c0,2.83,0,2.427,0,2.427L147.891,178.052z"/>
		<path fill="#F7AB63" d="M123.615,68.098l50.701,1.056C174.316,69.154,125.198,73.379,123.615,68.098z"/>
		<polygon fill="#EF8E30" points="33.722,155.768 29.216,156.297 29.216,149.961 34.197,149.079 		"/>
		<polygon fill="#EF8E30" points="277.216,152.571 273.08,152.571 272.683,147.039 277.216,147.847 		"/>
		<path fill="#EF8E30" d="M139.636,206.294c0,0-4.226,13.732,5.106,23.59c2.64,0.529,5.456,0.529,5.456,0.529
			S138.403,215.097,139.636,206.294z"/>
	</g>
</g>
</svg>
