<?xml version="1.0" encoding="utf-8"?>
<!-- Generator: Adobe Illustrator 16.0.0, SVG Export Plug-In . SVG Version: 6.00 Build 0)  -->
<!DOCTYPE svg PUBLIC "-//W3C//DTD SVG 1.1//EN" "http://www.w3.org/Graphics/SVG/1.1/DTD/svg11.dtd">
<svg version="1.1" id="Layer_1" xmlns="http://www.w3.org/2000/svg" xmlns:xlink="http://www.w3.org/1999/xlink" x="0px" y="0px"
	 width="299.143px" height="299.143px" viewBox="0 0 299.143 299.143" enable-background="new 0 0 299.143 299.143"
	 xml:space="preserve">
<g>
	<circle fill="#98DDC2" cx="149.571" cy="149.571" r="149.571"/>
	<polygon fill="#55BB91" points="96.281,89.649 80.418,95.142 77.978,66.771 	"/>
	<path fill="none" stroke="#55BB91" stroke-miterlimit="10" d="M85.91,92.7"/>
	<g>
		<path fill="#55BB91" d="M123.737,79.583c0,0,10.374-9.763,20.439,0.304c0,5.188-0.61,14.644-0.61,14.644
			s-10.067-2.746-15.863,1.221C126.787,91.785,123.737,79.583,123.737,79.583z"/>
		
			<ellipse transform="matrix(-0.0234 -0.9997 0.9997 -0.0234 43.9826 232.339)" fill="#C4F2D8" cx="135.474" cy="94.687" rx="1.983" ry="8.084"/>
	</g>
	<path fill="#55BB91" d="M131.668,98.856l-0.916-3.874c0,0,3.966-1.589,9.151-0.466c0.61,1.281,1.524,4.34,1.524,4.34H131.668z"/>
	<path fill="#98DDC2" d="M128.312,92.157c-0.17,0-0.325-0.117-0.362-0.291l-2.44-10.981c-0.043-0.202,0.082-0.401,0.282-0.444
		s0.397,0.082,0.442,0.282l2.44,10.982c0.043,0.199-0.082,0.398-0.282,0.442C128.367,92.156,128.339,92.157,128.312,92.157z"/>
	<path fill="#98DDC2" d="M130.447,91.853c-0.18,0-0.34-0.134-0.365-0.318l-1.83-12.661c-0.03-0.203,0.11-0.392,0.313-0.421
		c0.197-0.027,0.393,0.111,0.42,0.314l1.831,12.66c0.031,0.204-0.11,0.392-0.313,0.42C130.483,91.851,130.465,91.853,130.447,91.853
		z"/>
	<path fill="#98DDC2" d="M132.583,91.242c-0.188,0-0.348-0.142-0.368-0.333l-1.372-13.271c-0.021-0.205,0.125-0.387,0.33-0.407
		c0.212-0.024,0.388,0.126,0.409,0.331l1.373,13.271c0.021,0.204-0.128,0.386-0.333,0.407
		C132.609,91.242,132.596,91.242,132.583,91.242z"/>
	<path fill="#98DDC2" d="M134.719,90.856c-0.196,0-0.358,0.195-0.372-0.002l-0.915-14.165c-0.012-0.206,0.143-0.295,0.346-0.308
		c0.214-0.011,0.383,0.184,0.396,0.389l0.916,14.014c0.012,0.205-0.144,0.071-0.348,0.071
		C134.734,90.856,134.727,90.856,134.719,90.856z"/>
	<path fill="#98DDC2" d="M136.854,90.856c-0.203,0-0.37,0.028-0.372-0.174l-0.152-13.631c-0.001-0.206,0.164-0.324,0.367-0.327
		c0.208,0,0.374,0.187,0.375,0.392l0.153,13.546c0.001,0.205-0.162,0.195-0.367,0.195C136.855,90.856,136.855,90.856,136.854,90.856
		z"/>
	<path fill="#98DDC2" d="M138.99,90.856c-0.011,0-0.02,0-0.026,0c-0.205,0-0.358,0-0.344-0.206l0.916-12.412
		c0.014-0.203,0.201-0.299,0.396-0.297c0.204,0.017,0.36,0.221,0.343,0.425l-0.915,12.324
		C139.347,90.887,139.183,90.856,138.99,90.856z"/>
	<path fill="#98DDC2" d="M141.278,91.853c-0.015,0-0.03-0.002-0.045-0.004c-0.204-0.024-0.35-0.211-0.323-0.414l1.373-11.287
		c0.022-0.203,0.208-0.352,0.412-0.323c0.204,0.024,0.351,0.209,0.325,0.412l-1.373,11.289
		C141.624,91.714,141.464,91.853,141.278,91.853z"/>
	<g>
		<g>
			<polygon fill="#C4F2D8" points="80.418,95.142 124.347,223.268 141.43,218.387 96.281,89.649 88.35,87.21 85.91,92.7 
				81.029,89.04 			"/>
			<path fill="#55BB91" d="M123.873,224.175L79.663,95.229l0.758-7.573l5.188,3.894l2.331-5.242l8.919,2.744l0.123,0.354
				l45.41,129.479L123.873,224.175z M81.173,95.054L124.82,222.36l15.648-4.471L95.705,90.25l-6.943-2.138l-2.552,5.741
				l-4.574-3.429L81.173,95.054z"/>
		</g>
		
			<rect x="39.514" y="156.883" transform="matrix(-0.3203 -0.9473 0.9473 -0.3203 -6.7807 309.8912)" fill="#55BB91" width="136.536" height="0.991"/>
		<g>
			<path fill="#C4F2D8" d="M205.207,95.844c0,0-13.807-27.868,8.741-32.625c11.134-2.215,23.803-11.303,22.102-16.664
				c5.155,44.256-12.536,51.953-12.536,51.953L205.207,95.844z"/>
			<path fill="#55BB91" d="M221.567,102.383c1.361-2.398,1.797-3.943,1.797-3.943s-5.582-12.812-19.506-6.782
				c-0.225,0.48-0.693,1.877-1.429,3.953C202.169,96.349,221.481,102.532,221.567,102.383z"/>
			<path fill="#C4F2D8" d="M160.992,222.952c0,0-7.512,24.762,10.438,2.99c4.554-8.854,50.467-121.475,50.467-121.475
				s-4.854-16.718-21.013-8.253C197.753,102.906,160.992,222.952,160.992,222.952z"/>
			<path fill="#98DDC2" d="M202.357,98.242l-25.16,78.8l32.37-80.359C209.567,96.683,206.369,95.129,202.357,98.242z"/>
		</g>
		<g>
			<polygon fill="#C4F2D8" points="114.433,100.327 160.877,96.101 162.175,102.856 159.734,102.856 168.275,176.18 
				131.973,180.353 117.33,105.563 115.5,105.233 			"/>
			<path fill="#98DDC2" d="M118.856,105.208l33.558-3.355C152.413,101.853,120.075,107.343,118.856,105.208z"/>
			<path fill="#98DDC2" d="M126.177,118.173c0,0,7.779,26.54,7.015,32.184c3.356,0,27.456,0.152,27.764-2.746
				c-0.308-2.746-5.188-34.625-5.188-34.625S133.042,113.141,126.177,118.173z"/>
			<path display="none" fill="#55BB91" d="M123.737,123.055c0,0,7.779,26.539,7.017,32.183c3.356,0,27.455,0.153,27.76-2.745
				c-0.305-2.745-5.186-34.624-5.186-34.624S130.601,118.021,123.737,123.055z"/>
		</g>
		<path fill="#55BB91" d="M208.548,160.22l-126.91-0.405c-23.184,3.661-2.439,13.423-2.439,13.423l27.661,90.298
			c0,0,39.862,23.59,81.351-0.813c4.072-25.117,18.711-86.229,18.711-86.229C225.631,169.168,208.548,160.22,208.548,160.22z"/>
	</g>
	<rect x="147.424" y="226.833" fill="none" width="62.897" height="60.422"/>
	<g enable-background="new    ">
		<path fill="#F7AB63" d="M149.827,241.742c0.116-0.278,0.279-0.511,0.487-0.696c0.186-0.209,0.418-0.371,0.697-0.487
			c0.278-0.116,0.568-0.175,0.871-0.175h2.229c0.301,0,0.592,0.059,0.87,0.175s0.511,0.278,0.696,0.487
			c0.209,0.186,0.371,0.418,0.488,0.696c0.115,0.278,0.174,0.569,0.174,0.871s-0.059,0.592-0.174,0.87
			c-0.117,0.278-0.279,0.511-0.488,0.696c-0.186,0.209-0.418,0.372-0.696,0.487c-0.278,0.117-0.569,0.175-0.87,0.175h-2.229
			c-0.303,0-0.593-0.058-0.871-0.175c-0.279-0.115-0.512-0.278-0.697-0.487c-0.208-0.186-0.371-0.418-0.487-0.696
			c-0.116-0.278-0.174-0.568-0.174-0.87S149.711,242.021,149.827,241.742z M158.411,232.863c0.104,0.278,0.156,0.558,0.156,0.836
			s-0.053,0.557-0.156,0.836c-0.105,0.278-0.273,0.521-0.506,0.73c-0.209,0.232-0.452,0.401-0.73,0.506
			c-0.279,0.104-0.558,0.156-0.836,0.156c-0.279,0-0.557-0.053-0.836-0.156c-0.279-0.104-0.522-0.273-0.731-0.506l-2.229-2.229
			c-0.232-0.209-0.4-0.452-0.505-0.731c-0.104-0.278-0.156-0.557-0.156-0.835c0-0.279,0.052-0.558,0.156-0.836
			c0.104-0.279,0.272-0.522,0.505-0.731c0.209-0.231,0.452-0.4,0.731-0.505c0.278-0.104,0.557-0.157,0.836-0.157
			c0.278,0,0.557,0.053,0.836,0.157c0.277,0.104,0.521,0.273,0.73,0.505l2.229,2.229
			C158.138,232.34,158.306,232.584,158.411,232.863z M155.503,249.456c0.279-0.104,0.557-0.157,0.836-0.157
			c0.278,0,0.557,0.053,0.836,0.157c0.278,0.104,0.521,0.272,0.73,0.505c0.232,0.209,0.4,0.452,0.506,0.731
			c0.104,0.278,0.156,0.557,0.156,0.835c0,0.279-0.053,0.558-0.156,0.836c-0.105,0.278-0.273,0.522-0.506,0.731l-2.229,2.229
			c-0.209,0.232-0.453,0.4-0.73,0.505c-0.279,0.104-0.558,0.157-0.836,0.157c-0.279,0-0.558-0.053-0.836-0.157
			c-0.279-0.104-0.522-0.272-0.731-0.505c-0.232-0.209-0.4-0.452-0.505-0.731c-0.104-0.278-0.156-0.557-0.156-0.835
			c0-0.279,0.052-0.558,0.156-0.836c0.104-0.279,0.272-0.522,0.505-0.731l2.229-2.229
			C154.981,249.729,155.224,249.561,155.503,249.456z M167.865,236.449c0.812,0.348,1.521,0.824,2.124,1.428s1.08,1.312,1.428,2.124
			c0.349,0.813,0.522,1.684,0.522,2.612s-0.174,1.799-0.522,2.611c-0.348,0.812-0.824,1.521-1.428,2.124
			c-0.604,0.604-1.312,1.08-2.124,1.428c-0.813,0.349-1.684,0.522-2.612,0.522c-0.928,0-1.799-0.174-2.611-0.522
			c-0.812-0.348-1.521-0.823-2.124-1.428c-0.604-0.604-1.079-1.312-1.428-2.124s-0.522-1.683-0.522-2.611s0.174-1.799,0.522-2.612
			c0.349-0.812,0.823-1.521,1.428-2.124c0.604-0.604,1.312-1.08,2.124-1.428c0.812-0.349,1.684-0.522,2.611-0.522
			C166.182,235.927,167.052,236.101,167.865,236.449z M164.034,239.723c-0.371,0.162-0.708,0.383-1.01,0.661
			c-0.278,0.303-0.499,0.64-0.661,1.011c-0.163,0.371-0.243,0.777-0.243,1.219c0,0.44,0.08,0.848,0.243,1.219
			c0.162,0.371,0.383,0.708,0.661,1.01c0.302,0.278,0.639,0.499,1.01,0.661c0.371,0.163,0.777,0.244,1.219,0.244
			s0.848-0.081,1.219-0.244c0.371-0.162,0.709-0.383,1.011-0.661c0.278-0.302,0.499-0.639,0.661-1.01s0.244-0.778,0.244-1.219
			c0-0.441-0.082-0.848-0.244-1.219s-0.383-0.708-0.661-1.011c-0.302-0.278-0.64-0.499-1.011-0.661s-0.777-0.244-1.219-0.244
			S164.406,239.561,164.034,239.723z M166.124,227.186c0.279,0.117,0.51,0.279,0.697,0.488c0.208,0.186,0.371,0.418,0.486,0.696
			c0.116,0.278,0.175,0.569,0.175,0.87v2.229c0,0.302-0.059,0.592-0.175,0.87c-0.115,0.278-0.278,0.511-0.486,0.696
			c-0.188,0.209-0.418,0.372-0.697,0.487c-0.278,0.117-0.568,0.175-0.871,0.175c-0.301,0-0.592-0.058-0.87-0.175
			c-0.278-0.115-0.511-0.278-0.696-0.487c-0.209-0.186-0.371-0.418-0.488-0.696c-0.115-0.278-0.174-0.568-0.174-0.87v-2.229
			c0-0.301,0.059-0.592,0.174-0.87c0.117-0.278,0.279-0.511,0.488-0.696c0.186-0.209,0.418-0.371,0.696-0.488
			c0.278-0.115,0.569-0.174,0.87-0.174C165.556,227.012,165.846,227.071,166.124,227.186z M166.124,251.702
			c0.279,0.116,0.51,0.278,0.697,0.487c0.208,0.186,0.371,0.418,0.486,0.696c0.116,0.278,0.175,0.569,0.175,0.871v2.229
			c0,0.302-0.059,0.592-0.175,0.87c-0.115,0.279-0.278,0.511-0.486,0.696c-0.188,0.209-0.418,0.372-0.697,0.488
			c-0.278,0.116-0.568,0.174-0.871,0.174c-0.301,0-0.592-0.058-0.87-0.174s-0.511-0.279-0.696-0.488
			c-0.209-0.186-0.371-0.417-0.488-0.696c-0.115-0.278-0.174-0.568-0.174-0.87v-2.229c0-0.302,0.059-0.593,0.174-0.871
			c0.117-0.278,0.279-0.511,0.488-0.696c0.186-0.209,0.418-0.371,0.696-0.487s0.569-0.175,0.87-0.175
			C165.556,251.528,165.846,251.586,166.124,251.702z M175.562,229.398c0.278-0.104,0.557-0.157,0.836-0.157
			c0.278,0,0.557,0.053,0.836,0.157c0.277,0.104,0.521,0.273,0.73,0.505c0.232,0.209,0.4,0.452,0.506,0.731
			c0.104,0.278,0.156,0.557,0.156,0.836c0,0.278-0.053,0.557-0.156,0.835c-0.105,0.279-0.273,0.522-0.506,0.731l-2.229,2.229
			c-0.209,0.232-0.453,0.401-0.731,0.506c-0.278,0.104-0.558,0.156-0.835,0.156c-0.279,0-0.558-0.053-0.836-0.156
			c-0.279-0.104-0.523-0.273-0.732-0.506c-0.231-0.209-0.4-0.452-0.504-0.73c-0.105-0.279-0.157-0.558-0.157-0.836
			s0.052-0.558,0.157-0.836c0.104-0.278,0.272-0.522,0.504-0.731l2.229-2.229C175.039,229.671,175.282,229.502,175.562,229.398z
			 M178.47,252.921c0.104,0.278,0.156,0.557,0.156,0.836c0,0.278-0.053,0.557-0.156,0.835c-0.105,0.279-0.273,0.522-0.506,0.731
			c-0.209,0.232-0.453,0.4-0.73,0.505c-0.279,0.104-0.558,0.157-0.836,0.157c-0.279,0-0.558-0.053-0.836-0.157
			c-0.279-0.104-0.522-0.272-0.731-0.505l-2.229-2.229c-0.231-0.209-0.4-0.453-0.504-0.731c-0.105-0.278-0.157-0.557-0.157-0.836
			c0-0.278,0.052-0.557,0.157-0.835c0.104-0.279,0.272-0.522,0.504-0.731c0.209-0.232,0.453-0.4,0.732-0.505
			c0.278-0.104,0.557-0.157,0.836-0.157c0.277,0,0.557,0.053,0.835,0.157s0.522,0.272,0.731,0.505l2.229,2.229
			C178.197,252.399,178.365,252.642,178.47,252.921z M174.343,241.742c0.115-0.278,0.278-0.511,0.487-0.696
			c0.186-0.209,0.418-0.371,0.696-0.487c0.279-0.116,0.568-0.175,0.871-0.175h2.229c0.301,0,0.592,0.059,0.871,0.175
			c0.277,0.116,0.51,0.278,0.695,0.487c0.209,0.186,0.371,0.418,0.488,0.696c0.115,0.278,0.174,0.569,0.174,0.871
			s-0.059,0.592-0.174,0.87c-0.117,0.278-0.279,0.511-0.488,0.696c-0.186,0.209-0.418,0.372-0.695,0.487
			c-0.279,0.117-0.57,0.175-0.871,0.175h-2.229c-0.303,0-0.592-0.058-0.871-0.175c-0.278-0.115-0.511-0.278-0.696-0.487
			c-0.209-0.186-0.372-0.418-0.487-0.696c-0.117-0.278-0.174-0.568-0.174-0.87S174.226,242.021,174.343,241.742z"/>
	</g>
</g>
</svg>
