<?xml version="1.0" encoding="utf-8"?>
<!-- Generator: Adobe Illustrator 16.0.0, SVG Export Plug-In . SVG Version: 6.00 Build 0)  -->
<!DOCTYPE svg PUBLIC "-//W3C//DTD SVG 1.1//EN" "http://www.w3.org/Graphics/SVG/1.1/DTD/svg11.dtd">
<svg version="1.1" id="Layer_1" xmlns="http://www.w3.org/2000/svg" xmlns:xlink="http://www.w3.org/1999/xlink" x="0px" y="0px"
	 width="298.239px" height="298.239px" viewBox="0 0 298.239 298.239" enable-background="new 0 0 298.239 298.239"
	 xml:space="preserve">
<circle fill="#4E8FEF" cx="149.119" cy="149.119" r="149.119"/>
<g>
	<path fill="#9BC0F7" d="M109.373,177.972c0,0,27.242-2.013,82.799-1.509c2.67-11.566,21.367-110.14,21.367-110.14
		s-12.822-17.604-28.312-1.509c0,1.005-11.753-16.094-24.037,0c-1.604-4.527-13.89-13.58-23.505,0
		c0.533,1.005-11.217-15.59-24.037-0.502c0,1.006-15.49-14.585-27.245,1.006C86.403,66.323,109.373,177.972,109.373,177.972z"/>
	<path fill="#4E8FEF" d="M122.192,151.883c-0.538,0-1-0.403-1.06-0.951l-9.615-87.005c-0.068-0.587,0.357-1.116,0.945-1.18
		c0.58-0.059,1.112,0.359,1.18,0.944l9.612,87.007c0.065,0.588-0.357,1.114-0.945,1.18
		C122.272,151.881,122.232,151.883,122.192,151.883z"/>
	<path fill="#4E8FEF" d="M140.887,150.571c-0.567,0-1.04-0.043-1.065-0.617l-3.737-86.304c-0.028-0.589,0.43-0.985,1.02-1.01
		c0.585-0.032,1.087,0.483,1.112,1.07l3.74,86.125c0.025,0.59-0.43,0.735-1.02,0.735
		C140.92,150.571,140.905,150.571,140.887,150.571z"/>
	<path fill="#4E8FEF" d="M160.12,150.571c0,0-0.002,0-0.008,0c-0.587,0-1.062-0.08-1.061-0.67l0.535-86.388
		c0.002-0.588,0.479-0.942,1.066-0.942c0.004,0,0.006,0,0.01,0c0.59,0,1.062,0.571,1.062,1.157l-0.535,86.146
		C161.185,150.459,160.708,150.571,160.12,150.571z"/>
	<path fill="#4E8FEF" d="M178.817,150.571c-0.021,0-0.048,0-0.074,0c-0.588,0-1.029-0.146-0.99-0.736l5.875-85.797
		c0.039-0.587,0.539-0.922,1.142-0.892c0.587,0.042,1.03,0.604,0.992,1.191l-5.878,85.622
		C179.844,150.518,179.375,150.571,178.817,150.571z"/>
</g>
<path fill="#7AADF7" d="M196.445,178.571c0,5.165-1.149,9-5.073,9H111.24c-3.92,0-5.072-3.835-5.072-9l0,0c0-5.164,1.152-9,5.072-9
	h80.131C195.293,169.571,196.445,173.407,196.445,178.571L196.445,178.571z"/>
<path fill="#4E8FEF" d="M38.595,239.668"/>
<path fill="#7AADF7" d="M259.459,131.179c-14.953-31.608-31.06-5.473-31.06-5.473l-21.312,97.49l-47.646-6.625
	c10.589,52.301,50.539,26.657,53.117,8.317l0.19,0.026c0,0,18.701-77.561,22.969-97.542c11.816-11.099,18.359,7.496,18.359,7.496
	S260.527,138.882,259.459,131.179z"/>
<path fill="#4E8FEF" d="M165.366,220.399c0,0,2.523,20.322,17.438,24.23C176.847,237.131,166.956,223.142,165.366,220.399z"/>
<path fill="#7AADF7" d="M47.055,118.499c0,0-2.136-18.519,12.465-2.85c5.698,14.6,43.09,90.098,43.09,90.098l-9.26,6.055
	L47.055,118.499z"/>
<circle fill="#7AADF7" cx="110.265" cy="226.582" r="26.887"/>
<circle fill="#4E8FEF" cx="94.419" cy="224.625" r="3.919"/>
<path fill="#4E8FEF" d="M107.95,211.804c0,2.161-1.752,3.915-3.915,3.915c-2.165,0-3.92-1.754-3.92-3.915
	c0-2.165,1.755-3.921,3.92-3.921C106.197,207.883,107.95,209.639,107.95,211.804z"/>
<circle fill="#4E8FEF" cx="100.829" cy="239.582" r="3.919"/>
<circle fill="#4E8FEF" cx="117.922" cy="241.716" r="3.917"/>
<circle fill="#4E8FEF" cx="120.06" cy="212.873" r="3.917"/>
<circle fill="#4E8FEF" cx="126.47" cy="226.761" r="3.917"/>
<circle fill="#4E8FEF" cx="110.445" cy="226.761" r="3.917"/>
</svg>
