<?xml version="1.0" encoding="utf-8"?>
<!-- Generator: Adobe Illustrator 16.0.0, SVG Export Plug-In . SVG Version: 6.00 Build 0)  -->
<!DOCTYPE svg PUBLIC "-//W3C//DTD SVG 1.1//EN" "http://www.w3.org/Graphics/SVG/1.1/DTD/svg11.dtd">
<svg version="1.1" id="Layer_1" xmlns="http://www.w3.org/2000/svg" xmlns:xlink="http://www.w3.org/1999/xlink" x="0px" y="0px"
	 width="164.562px" height="130.979px" viewBox="0 0 164.562 130.979" enable-background="new 0 0 164.562 130.979"
	 xml:space="preserve">
<g id="hello">
	<g>
		<path fill="#EF8E30" d="M145.734,94.418c-0.102-0.048-0.205-0.084-0.312-0.113c0.19-0.475,0.627-1.743,0.663-3.415
			c0.034-1.624-0.322-3.908-1.996-6.195c0.502-1.152,1.212-3.665-0.574-6.203c-0.26-0.369-0.522-0.646-0.78-0.856
			c0.653-0.913,1.415-2.38,1.281-4.148c-0.158-2.093-1.502-4.004-3.997-5.68c-1.062-0.713-2.073-1.227-3.034-1.547
			c0.157-1.68,0.307-6.112-2.149-8.612c-1.405-1.433-3.385-1.985-5.884-1.642c-0.683,0.094-1.315,0.207-1.907,0.339
			c-0.982-2.235-2.287-3.454-3.884-3.62c-2.526-0.268-4.83,2.237-5.893,3.612c-1.487-1.39-2.933-1.953-4.367-1.714
			c-1.172,0.197-2.156,0.936-2.978,1.927c-0.046-0.05-0.092-0.099-0.138-0.145c-2.181-2.846-4.091-3.954-5.837-3.394
			c-1.764,0.567-2.979,3.207-3.714,7.172c-0.507,2.727-0.587,5.814-0.589,5.814h0.002c-0.868,1-1.421,1.723-1.732,2.598
			c-0.573-0.23-1.163-0.494-1.733-0.223c-1.158,0.547-1.676,2.053-1.628,4.965c0.021,1.377,0.167,2.616,0.251,3.253
			c-0.002,0.002-0.002-0.022-0.003-0.021c-0.638-0.066-1.217,0.027-1.744,0.312c-2.504,1.353-2.321,6.292-2.177,8.011
			c-3.335,3.138-2.134,8.408-0.758,11.332c-0.165,0.143-0.308,0.29-0.422,0.436c-2.147,2.78,0.291,9.211,0.713,10.263
			c-0.141,0.861-0.204,1.668-0.23,2.266c-0.627,0.287-0.958,0.757-1.129,1.148c-1.064,2.437,1.849,7.417,2.945,9.149
			c0.459,3.703,5.879,8.337,6.541,8.89l0.185,0.153l4.21,0.683c0.094,0.075,0.173,0.138,0.214,0.168l0.191,0.146l11.077,1.259
			l-0.701-0.154l4.668-0.09v-0.103c0,0.019,0.746,0.033,0.771,0.043l0.441,0.042l1.918,0.176l-0.031,0.139l1.828,0.029l0.315,0.029
			l0.045-0.024l6.552,0.106l0.181-0.078c0.026-0.012,2.731-1.23,5.386-2.672c4.758-2.586,5.646-3.837,5.701-4.741
			c0.707-1.694,3.274-8.025,4.235-12.829l0.138-0.688l-0.092-0.041c0.049-1.362-0.053-2.797-0.805-3.563
			c0.255-0.871,0.816-2.868,1.255-4.967C147.118,97.111,146.972,95.023,145.734,94.418z"/>
		<path opacity="0.2" fill="#FFFFFF" d="M116.027,90.037c0.515,0.315-3.534,4.027-4.37,3.286c-0.838-0.74-0.099-3.544,1.243-5.059
			C114.241,86.749,114.138,88.875,116.027,90.037z"/>
		<path opacity="0.2" fill="#FFFFFF" d="M123.438,86.114c0.219,0.564-3.533,4.027-4.371,3.286c-0.836-0.741-0.096-3.544,1.245-5.06
			C121.652,82.826,122.711,84.225,123.438,86.114z"/>
		<path opacity="0.2" fill="#FFFFFF" d="M130.269,73.327c0.216,0.564-2.955,1.121-3.791,0.38c-0.837-0.741-0.166-3.95,1.174-5.466
			C128.992,66.725,129.541,71.438,130.269,73.327z"/>
		<path opacity="0.2" fill="#FFFFFF" d="M131.285,81.754c0.217,0.564-3.534,4.026-4.371,3.286s-0.098-3.544,1.244-5.059
			C129.497,78.466,130.559,79.866,131.285,81.754z"/>
		<path opacity="0.2" fill="#FFFFFF" d="M133.464,92.653c0.217,0.562-3.533,4.026-4.371,3.285c-0.836-0.74-0.097-3.543,1.245-5.059
			C131.678,89.366,132.737,90.764,133.464,92.653z"/>
		<path opacity="0.2" fill="#FFFFFF" d="M117.335,80.01c0.217,0.565-3.534,4.027-4.371,3.285c-0.837-0.74-0.097-3.543,1.244-5.058
			C115.549,76.722,116.608,78.123,117.335,80.01z"/>
		<path opacity="0.2" fill="#FFFFFF" d="M109.053,76.087c0.216,0.564-3.535,4.026-4.37,3.286c-0.838-0.74-0.098-3.545,1.243-5.059
			C107.267,72.799,108.326,74.2,109.053,76.087z"/>
		<path opacity="0.2" fill="#FFFFFF" d="M123.874,75.214c0.218,0.565-3.535,4.028-4.371,3.288c-0.837-0.74-0.097-3.545,1.244-5.061
			C122.088,71.928,123.147,73.327,123.874,75.214z"/>
		<path opacity="0.2" fill="#FFFFFF" d="M142.184,71.729c0.217,0.564-5.848,3.936-6.685,3.196s-0.399-5.198,0.94-6.714
			C137.78,66.697,141.457,69.84,142.184,71.729z"/>
		<path opacity="0.2" fill="#FFFFFF" d="M142.618,80.446c0.218,0.566,1.128,3.938,0.292,3.198c-0.837-0.741-4.76-3.456-3.418-4.97
			C140.833,77.159,141.893,78.558,142.618,80.446z"/>
		<path opacity="0.2" fill="#FFFFFF" d="M139.131,81.754c0.217,0.564-3.534,4.026-4.371,3.286c-0.836-0.74-0.097-3.544,1.244-5.059
			C137.345,78.466,138.404,79.866,139.131,81.754z"/>
		<path opacity="0.2" fill="#FFFFFF" d="M141.457,90.037c0.217,0.565-5.86,3.591-6.697,2.851c-0.836-0.74-0.097-3.544,1.244-5.06
			C137.345,86.313,140.73,88.149,141.457,90.037z"/>
		<path opacity="0.2" fill="#FFFFFF" d="M124.311,97.448c0.217,0.564-5.121,2.63-5.958,1.89c-0.837-0.741,1.489-2.147,2.831-3.663
			C122.523,94.16,123.583,95.559,124.311,97.448z"/>
		<path opacity="0.2" fill="#FFFFFF" d="M115.591,103.549c0.218,0.564-4.829,2.195-5.665,1.455c-0.837-0.74,1.198-1.713,2.539-3.227
			C113.806,100.263,114.865,101.663,115.591,103.549z"/>
		<path opacity="0.2" fill="#FFFFFF" d="M101.207,89.746c0.217,0.564-4.406,4.754-5.245,4.014c-0.835-0.741-0.095-3.546,1.245-5.061
			C98.548,87.184,100.48,87.858,101.207,89.746z"/>
		<path opacity="0.2" fill="#FFFFFF" d="M108.764,85.532c0.217,0.565-2.373,4.173-3.211,3.432c-0.836-0.74-0.096-3.544,1.245-5.059
			C108.139,82.389,108.036,83.644,108.764,85.532z"/>
		<path opacity="0.2" fill="#FFFFFF" d="M106.729,98.61c0.218,0.563-3.389,2.429-4.227,1.688c-0.836-0.74-0.097-3.544,1.243-5.059
			C105.087,93.723,106.002,96.721,106.729,98.61z"/>
		<path opacity="0.2" fill="#FFFFFF" d="M125.617,122.73c0.217,0.565-3.534,4.028-4.369,3.287c-0.839-0.74-0.099-3.545,1.243-5.059
			C123.831,119.443,124.893,120.842,125.617,122.73z"/>
		<path opacity="0.2" fill="#FFFFFF" d="M114.866,117.936c0.218,0.564-4.553,2.283-5.39,1.542c-0.836-0.74-0.097-3.544,1.244-5.059
			C112.062,112.903,114.14,116.047,114.866,117.936z"/>
		<path opacity="0.2" fill="#FFFFFF" d="M123.002,111.833c0.217,0.564-3.534,4.027-4.371,3.286c-0.837-0.74-1.327-3.515,0.013-5.029
			C119.986,108.575,122.276,109.944,123.002,111.833z"/>
		<path opacity="0.2" fill="#FFFFFF" d="M95.539,86.549c0.217,0.563-3.535,4.027-4.371,3.287c-0.837-0.74-0.096-3.545,1.244-5.061
			C93.753,83.262,94.812,84.661,95.539,86.549z"/>
		<path opacity="0.2" fill="#FFFFFF" d="M106.873,107.909c0.217,0.565-3.533,4.027-4.371,3.287c-0.836-0.741-0.097-3.545,1.243-5.06
			C105.087,104.622,106.146,106.02,106.873,107.909z"/>
		<path opacity="0.2" fill="#FFFFFF" d="M138.259,124.039c0.218,0.565-4.684,1.903-5.521,1.162c-0.836-0.74,0.984-0.664,2.325-2.18
			C136.404,121.506,137.533,122.15,138.259,124.039z"/>
		<path opacity="0.2" fill="#FFFFFF" d="M106.438,125.055c0.217,0.565-1.356,3.01-2.193,2.27c-0.836-0.74-2.636-3.951-1.294-5.466
			C104.292,120.344,105.712,123.168,106.438,125.055z"/>
		<path opacity="0.2" fill="#FFFFFF" d="M101.207,115.03c0.217,0.564-1.355,3.01-2.192,2.269c-0.837-0.739-2.636-3.95-1.294-5.466
			C99.061,110.317,100.48,113.141,101.207,115.03z"/>
		<path opacity="0.2" fill="#FFFFFF" d="M118.644,71.874c0.218,0.564-1.355,3.01-2.192,2.269c-0.836-0.739-2.635-3.951-1.294-5.465
			C116.498,67.163,117.917,69.986,118.644,71.874z"/>
		<path opacity="0.2" fill="#FFFFFF" d="M123.874,66.207c0.218,0.565-1.354,3.009-2.191,2.269c-0.837-0.738-2.636-3.95-1.295-5.466
			C121.728,61.495,123.148,64.319,123.874,66.207z"/>
		<path opacity="0.2" fill="#FFFFFF" d="M115.593,61.846c0.218,0.565-1.355,3.01-2.192,2.27s-2.636-3.951-1.295-5.465
			C113.446,57.135,114.866,59.959,115.593,61.846z"/>
		<path opacity="0.2" fill="#FFFFFF" d="M106.002,59.668c0.218,0.564-1.354,3.008-2.192,2.268c-0.837-0.74-2.636-3.951-1.294-5.466
			C103.856,54.956,105.275,57.78,106.002,59.668z"/>
		<path opacity="0.2" fill="#FFFFFF" d="M134.482,115.756c0.217,0.563-2.068,0.74-2.905,0c-0.838-0.74,1.274-2.555,2.614-4.068
			C135.531,110.172,133.757,113.867,134.482,115.756z"/>
		<path opacity="0.2" fill="#FFFFFF" d="M130.414,107.182c0.217,0.565-1.355,3.011-2.193,2.271c-0.836-0.74-2.635-3.952-1.294-5.466
			C128.268,102.47,129.688,105.294,130.414,107.182z"/>
		<path opacity="0.2" fill="#FFFFFF" d="M144.073,112.996c0.217,0.563-2.373,4.171-3.21,3.431c-0.837-0.739-0.096-3.544,1.243-5.059
			C143.447,109.853,143.348,111.107,144.073,112.996z"/>
		<path opacity="0.2" fill="#FFFFFF" d="M144.944,99.482c0.218,0.563-2.372,4.173-3.21,3.432c-0.836-0.741-0.097-3.545,1.244-5.06
			C144.32,96.338,144.218,97.592,144.944,99.482z"/>
		<path opacity="0.2" fill="#FFFFFF" d="M95.686,106.458c0.217,0.562-2.373,4.171-3.209,3.43c-0.838-0.739-0.099-3.544,1.244-5.058
			C95.062,103.314,94.959,104.567,95.686,106.458z"/>
		<path opacity="0.2" fill="#FFFFFF" d="M97.43,120.842c0.217,0.563,1.272,4.082,0.437,3.341c-0.838-0.74-3.743-3.454-2.403-4.968
			C96.804,117.7,96.703,118.954,97.43,120.842z"/>
		<path opacity="0.2" fill="#FFFFFF" d="M95.831,80.446c0.217,0.566-0.18,3.938-1.019,3.198c-0.834-0.741-2.356-1.683-1.016-3.198
			C95.137,78.932,95.104,78.558,95.831,80.446z"/>
		<path opacity="0.2" fill="#FFFFFF" d="M100.626,73.472c0.217,0.564-0.181,3.938-1.018,3.196c-0.836-0.74-2.356-1.682-1.017-3.196
			C99.933,71.958,99.899,71.584,100.626,73.472z"/>
		<path opacity="0.2" fill="#FFFFFF" d="M102.807,66.497c0.217,0.564-0.181,3.939-1.019,3.197c-0.836-0.74-2.356-1.68-1.017-3.197
			C102.111,64.982,102.079,64.608,102.807,66.497z"/>
		<path opacity="0.2" fill="#FFFFFF" d="M98.882,100.062c0.218,0.565-0.18,3.938-1.016,3.198c-0.838-0.74-2.358-1.682-1.019-3.198
			C98.189,98.548,98.156,98.174,98.882,100.062z"/>
		<path opacity="0.2" fill="#FFFFFF" d="M92.779,97.883c0.217,0.563-0.18,3.938-1.017,3.196c-0.837-0.74-2.359-1.681-1.018-3.196
			C92.087,96.37,92.054,95.995,92.779,97.883z"/>
		<path opacity="0.2" fill="#FFFFFF" d="M131.141,57.343c0.217,0.563-0.18,3.937-1.018,3.196c-0.837-0.74-2.357-1.681-1.017-3.196
			C130.446,55.829,130.414,55.454,131.141,57.343z"/>
		<path display="none" fill="#CE7436" d="M145.734,94.31c-0.102-0.049-0.205-0.085-0.312-0.113c0.19-0.478,0.627-1.743,0.663-3.415
			c0.034-1.625-0.322-3.908-1.996-6.195c0.502-1.152,1.212-3.664-0.574-6.203c-0.26-0.371-0.522-0.647-0.78-0.855
			c0.653-0.915,1.415-2.381,1.281-4.149c-0.158-2.093-1.502-4.004-3.997-5.681c-1.062-0.712-2.073-1.226-3.034-1.546
			c0.157-1.68,0.307-6.112-2.148-8.612c-1.406-1.434-3.386-1.987-5.885-1.642c-0.683,0.093-1.316,0.206-1.907,0.338
			c-0.981-2.235-2.287-3.453-3.884-3.62c-2.526-0.268-4.83,2.238-5.893,3.611c-1.486-1.389-2.933-1.952-4.367-1.712
			c-1.172,0.196-2.156,0.937-2.977,1.927c-0.047-0.05-0.093-0.1-0.139-0.145c-2.181-2.846-4.091-3.955-5.837-3.395
			c-1.764,0.566-2.979,2.762-3.715,6.727c-0.507,2.727-0.586,5.369-0.588,5.369h0.002c-0.868,1-1.421,2.168-1.732,3.043
			c-0.572-0.23-1.163-0.272-1.733-0.001c-1.158,0.551-1.676,2.167-1.628,5.079c0.021,1.375,0.167,2.672,0.251,3.309
			c-0.002,0-0.002,0.004-0.003,0.006c-0.638-0.066-1.218,0.041-1.745,0.325c-2.503,1.353-2.32,6.298-2.176,8.019
			c-3.335,3.139-2.134,8.412-0.758,11.335c-0.165,0.144-0.308,0.291-0.422,0.438c-2.147,2.779,0.291,9.21,0.713,10.265
			c-0.141,0.859-0.204,1.667-0.23,2.264c-0.627,0.288-0.958,0.757-1.129,1.149c-1.064,2.437,1.849,7.416,2.945,9.148
			c0.458,3.705,5.879,8.336,6.541,8.891l0.185,0.152l4.21,0.683c0.095,0.076,0.173,0.138,0.214,0.169l0.191,0.146l11.077,1.258
			l-0.701-0.154l4.668-0.09v-0.102c0,0.017,0.746,0.032,0.771,0.042l0.441,0.043l1.918,0.175l-0.031,0.139l1.828,0.03l0.315,0.028
			l0.045-0.024l6.552,0.107l0.181-0.079c0.026-0.012,2.731-1.229,5.386-2.673c4.758-2.586,5.646-3.835,5.701-4.741
			c0.707-1.693,3.274-8.023,4.235-12.826l0.138-0.688l-0.092-0.042c0.049-1.362-0.053-2.795-0.805-3.563
			c0.255-0.87,0.816-2.868,1.255-4.967C147.118,97.002,146.972,94.915,145.734,94.31z M143.685,107.465
			c0.004,0.003,0.343,0.25,0.349,1.87c-0.613-0.001-1.261,0.182-1.942,0.547c-0.195-0.34-0.448-0.627-0.743-0.871
			c0.09-0.093,0.176-0.186,0.256-0.278C143.225,107.315,143.679,107.463,143.685,107.465z M136.919,109.526l-0.027-0.042
			c1.55,0.039,3.269,0.356,3.751,1.408c-0.659,0.559-1.344,1.261-2.055,2.118c-0.343,0.416-0.669,0.836-0.973,1.245
			C137.701,112.592,137.588,110.754,136.919,109.526z M128.34,120.438c-0.42-0.852-1.113-1.377-1.687-1.686
			c1.399-3.98,5.452-7.994,7.833-8.462c0.591-0.114,0.837,0.044,0.943,0.149c0.884,1.774,0.29,5.839-0.02,7.275l-0.521,2.426
			c-0.091,0.038-0.183,0.077-0.275,0.116l-0.167,0.071l-0.126,0.133c-2.027,2.152-4.552,3.424-6.185,4.079
			C128.836,122.959,128.906,121.579,128.34,120.438z M118.354,119.297c-0.396-1.252-0.81-2.365-1.244-3.33
			c-0.879-3.208-0.807-5.551,0.246-6.77c1.364-1.58,4.377-1.252,6.766-0.657c1.782,2.151,2.112,5.45,0.955,9.375l-2.746-1.766
			l-0.495,0.45C121.816,116.618,120.128,118.143,118.354,119.297z M100.654,120.332c-0.271-0.956-0.784-2.12-1.77-3.032
			c-0.926-0.855-2.096-1.338-3.479-1.453c0.594-2.208,1.728-4.81,2.871-4.893c0.472-0.031,2.195,0.417,4.819,7.468
			c-0.412,0.373-1.126,0.988-2.066,1.683C100.896,120.177,100.771,120.254,100.654,120.332z M91.925,109.196
			c0.085-2.055,0.521-4.458,1.504-5.376c0.25-0.234,0.506-0.435,0.818-0.417c1.482,0.099,2.533,3.187,3.159,5.032
			c0.109,0.319,0.205,0.599,0.299,0.856c-1.838,0.477-3.002,2.974-3.647,4.946c-0.631-1.286-1.393-2.858-1.832-3.826L91.925,109.196
			z M99.689,71.719c0.46-0.239,0.904-0.265,1.396-0.082c1.985,0.736,3.017,1.484,3.526,1.962c-1.21,1.374-1.229,3.942-1.096,5.561
			c-1.217-0.331-2.553-0.438-3.696-0.527c-0.29-0.023-0.568-0.044-0.826-0.068c-0.034-0.004-0.067-0.003-0.101-0.004
			c-0.873-0.724-1.68-1.263-2.421-1.62C96.934,75.453,98.111,72.534,99.689,71.719z M106.864,65.522
			c0.039-0.024,0.069-0.046,0.195,0.004c1.95,0.781,4.312,2.613,5.337,3.449c-0.441,1.346-0.627,2.828-0.706,3.837
			c-1.982-0.37-2.897-0.222-3.66-0.1c-0.126,0.021-0.248,0.041-0.371,0.056c-0.581-0.133-1.069-0.13-1.483-0.053
			c-0.161-0.183-0.371-0.393-0.641-0.621C105.575,69.262,106.1,66.042,106.864,65.522z M120.624,62.263
			c0.331-0.2,0.824-0.112,1.466,0.264c2.999,1.755,4.021,3.535,4.347,4.315c-1.526,1.058-2.555,3.568-3.069,5.122
			c-0.44-0.235-0.853-0.332-1.22-0.35l-0.014-0.009c-0.317-0.773-1.212-2.682-2.776-4.129
			C119.314,65.546,119.659,62.848,120.624,62.263z M132.317,79.802c-0.002-0.002-0.004-0.004-0.005-0.005
			c-1.102-1.062-2.5-1.233-3.505-1.185c0-1.211-0.927-2.191-3.048-4.418c-0.287-0.304-0.609-0.642-0.951-1.002
			c0.521-1.802,1.617-4.43,2.784-5.019c0.249-0.127,0.463-0.136,0.712-0.035C130.342,68.969,132.075,76.934,132.317,79.802z
			 M138.634,81.098c0.912,0.371,1.58,1.105,2.03,2.229c-1.114,0.702-1.838,2.216-2.209,3.229c-0.078-0.008-0.157-0.021-0.235-0.022
			c-2.193-0.058-3.888,1.942-4.743,3.217c-0.107-0.108-0.21-0.222-0.327-0.321c-0.005-0.004-0.009-0.006-0.013-0.01
			c0.837-3.314,0.947-5.899,0.332-7.725C134.462,81.242,136.805,80.356,138.634,81.098z M133.783,108.27l-0.52,0.578
			c-1.821,0.708-4.01,2.496-5.76,4.792c-0.004-3.322-1.276-5.374-2.254-6.46l-0.175-0.193l-0.253-0.066
			c-0.303-0.079-0.598-0.148-0.887-0.213c0.545-1.337,1.727-3.511,3.331-4.025c0.892-0.287,1.845-0.036,2.914,0.766
			C133.693,106.083,133.979,107.791,133.783,108.27z M120.332,106.312c-1.205-2.899-2.47-4.955-3.816-6.195
			c1.301-1.974,4.145-5.544,6.249-5.177c1.43,0.255,2.621,2.494,3.379,6.321c-2.253,1.106-3.539,4.023-3.962,5.145
			C121.523,106.327,120.907,106.295,120.332,106.312z M107.698,103.046c-1.729-0.916-3.174-0.721-4.135-0.354
			c-0.354,0.136-0.69,0.315-1.013,0.529c-0.704-1.975-1.706-6.136-0.063-8.097c0.996-1.188,2.922-1.509,5.726-0.955
			c0.553,0.822,1.421,3.422,2.025,5.735C109.062,100.867,108.189,102.188,107.698,103.046z M103.438,87.45l-0.091-0.102
			c-0.016-0.018-0.1-0.109-0.245-0.242c0.368-0.967,1.611-3.827,3.688-4.651c0.812-0.323,1.665-0.293,2.593,0.1
			c-0.152,2.113,0.777,4.087,1.385,5.129c-1.366,1.215-2.381,3.366-2.902,4.658c-1.171-0.183-2.224-0.222-3.148-0.109
			C104.724,90.505,103.438,87.45,103.438,87.45z M98.792,80.296l0.008,0.002c0.276,0.025,0.574,0.048,0.885,0.072
			c1.726,0.136,3.987,0.313,5.038,1.298c-1.628,1.289-2.638,3.32-3.102,4.436c-0.984-0.494-2.369-0.898-4.111-0.678
			C97.728,82.984,98.298,80.66,98.792,80.296z M106.001,74.667c0.197-0.18,0.551-0.393,1.374-0.171l0.153,0.042l0.158-0.018
			c0.214-0.021,0.414-0.053,0.623-0.086c0.779-0.128,1.66-0.27,4.125,0.318c0.385,0.484,1.001,1.173,1.514,1.729
			c-1.567,0.96-3.114,3.128-3.954,4.444c-1.28-0.524-2.523-0.571-3.71-0.14c-0.26-0.327-0.574-0.601-0.925-0.831
			C105.104,78.24,105.066,75.524,106.001,74.667z M121.791,73.385l1.521,0.761c0.434,0.46,0.832,0.878,1.186,1.251
			c2.321,2.438,2.683,2.875,2.529,3.494c-0.17,0.676-1.211,2.65-2.129,4.286c-0.553-0.54-1.391-0.848-3.04-1.019
			c-0.291-0.031-0.57-0.014-0.841,0.037c-0.455-1.13-1.354-2.73-2.415-4.022C119.089,76.684,120.442,73.728,121.791,73.385z
			 M128.296,80.421c0.581-0.105,1.925-0.228,2.812,0.638c0.838,0.814,1.564,2.776,0.454,7.465c-1.521-0.559-3.146-0.455-4.122-0.305
			c-0.172-0.671-0.499-1.658-1.227-2.822c-0.111-0.178-0.204-0.346-0.285-0.504C126.458,83.974,127.638,81.883,128.296,80.421z
			 M124.541,93.856c-0.454-0.324-0.942-0.539-1.472-0.633c-1.199-0.216-2.399,0.23-3.506,0.978l-1.685-3.791l-0.023-0.052
			c-0.017-0.028-0.131-0.239-0.343-0.543c0.604-2.074,2.357-6.096,4.166-5.924c1.939,0.201,2.048,0.431,2.446,1.28
			c0.146,0.313,0.33,0.702,0.608,1.149c0.802,1.282,1.013,2.275,1.127,2.809c0.024,0.116,0.045,0.211,0.065,0.288
			C125.942,89.993,125.543,92.641,124.541,93.856z M117.902,80.149c0.799,1.15,1.343,2.168,1.569,2.775
			c-1.661,1.294-2.771,3.884-3.308,5.402c-0.671-0.574-1.55-1.131-2.652-1.452c-0.423-0.124-0.829-0.126-1.218-0.037
			c-0.526-0.892-1.394-2.694-1.131-4.479c1.681-2.799,3.558-4.689,4.236-4.647C115.696,77.727,116.602,78.281,117.902,80.149z
			 M111.795,98.972c-0.459-1.688-1.391-4.807-2.305-5.993c0.923-2.255,2.475-4.738,3.533-4.431c2.096,0.611,3.165,2.405,3.276,2.602
			l1.861,4.188c-1.358,1.284-2.464,2.835-3.08,3.78c-0.557-0.267-1.125-0.415-1.711-0.43c-0.034-0.002-0.067-0.002-0.102-0.002
			C112.75,98.687,112.258,98.793,111.795,98.972z M131.791,102.491c-0.18-0.145-0.365-0.289-0.563-0.438
			c-0.069-0.051-0.137-0.092-0.206-0.142c2.712-5.556,4.456-5.851,5.109-5.708c1.405,0.312,2.384,3.104,2.416,4.51
			C135.062,99.907,132.854,101.221,131.791,102.491z M129.497,101.092c-0.561-0.198-1.114-0.29-1.664-0.268
			c-0.509-2.544-1.197-4.443-2.081-5.711c1.232-1.376,1.763-3.776,1.877-5.158c1.016-0.165,3.07-0.313,4.402,0.812
			c1.061,0.896,1.496,2.495,1.305,4.742C132.075,96.573,130.802,98.432,129.497,101.092z M120.447,72.102
			c-1.579,1.013-2.677,3.352-3.203,4.697c-0.427-0.342-0.861-0.592-1.286-0.716c-0.609-0.646-1.917-2.065-2.308-2.608l-0.187-0.264
			l-0.055-0.014c0.13-1.967,0.635-4.688,1.68-5.498c0.27-0.209,0.552-0.263,0.916-0.174
			C118.504,68.131,119.973,71.01,120.447,72.102z M97.291,87.29l0.09,0.046l0.006-0.091c0.101-0.041,0.2-0.072,0.303-0.086
			c2.418-0.321,3.912,0.923,4.273,1.268c0.745,1.721,1.168,3.6,0.979,4.266c-0.715,0.307-1.313,0.744-1.794,1.317
			c-0.646,0.772-1.002,1.718-1.171,2.719c-1.034-0.33-2.016-0.288-2.926,0.131c-0.359,0.165-0.684,0.384-0.979,0.636
			c-0.465-0.307-1.224-0.884-2.24-1.898l-0.131-0.131C94.289,92.301,95.696,88.099,97.291,87.29z M97.779,98.443
			c0.612-0.282,1.297-0.248,2.083,0.105c0.071,2.875,1.191,5.659,1.265,5.841l0.147-0.059c-0.927,1.007-1.669,2.305-2.188,3.637
			c-0.01-0.025-0.02-0.039-0.028-0.065c-0.706-2.077-1.728-5.05-3.697-5.931C95.733,100.797,96.533,99.016,97.779,98.443z
			 M104.406,116.961c-1.408-3.608-2.766-5.903-4.144-6.996c0.595-2.288,2.022-4.922,3.925-5.651c0.952-0.365,1.938-0.22,3.003,0.445
			c0.254,3.569,1.526,5.938,2.184,6.941c-1.847,1.091-3.425,3.196-4.604,4.775C104.646,116.642,104.524,116.805,104.406,116.961z
			 M111.045,111.051c-0.319-0.432-1.895-2.461-2.122-6.321c0.635-1.283,2.393-3.731,4.348-3.731c0.019,0,0.037,0,0.056,0
			c1.217,0,3.081,0.873,5.219,5.839c-1.039,0.275-1.879,0.634-2.51,1.364c-0.884,1.023-1.31,2.381-1.276,4.198
			c-0.729-0.709-1.505-1.175-2.333-1.325C111.955,110.989,111.495,110.969,111.045,111.051z M139.67,108.148
			c-1.414-0.438-3.039-0.446-4.111-0.381c-0.071-0.956-0.611-2.352-2.447-4.123c0.596-0.727,2.127-1.986,5.238-1.192
			c0.063,0.053,2.75,2.242,2.753,3.395C141.105,106.363,139.916,107.91,139.67,108.148z M136.557,94.502
			c-0.479-0.107-0.958-0.095-1.437,0.027c-0.002-1.242-0.193-1.895-0.587-2.793c0.567-1.033,2.034-2.738,3.607-2.738
			c0.015,0,0.029,0,0.043,0c1.369,0,2.804,1.299,4.156,4.338c0.41,0.873,0.825,1.264,1.28,1.576
			c-0.888,0.621-2.033,1.721-3.607,3.824C139.477,97,138.363,94.904,136.557,94.502z M144.103,92.614
			c-0.055-0.101-0.114-0.218-0.177-0.353c-1.154-2.597-2.433-4.317-3.818-5.142c0.443-1.188,1.043-2.109,1.562-2.369
			c0.089-0.045,0.168-0.065,0.246-0.062C144.784,87.758,144.506,90.993,144.103,92.614z M142.76,83.11l-0.101-0.037
			c-0.085-0.029-0.171-0.043-0.257-0.062c-0.513-1.447-1.317-2.509-2.404-3.164c0.355-0.564,0.838-1.108,1.215-1.145
			c0.329-0.024,0.688,0.416,0.876,0.685C143.067,80.777,143.001,82.165,142.76,83.11z M142.276,73.495
			c0.126,1.603-0.848,2.935-1.329,3.488c-1.264,0.182-2.172,1.47-2.599,2.225c-1.535-0.316-3.128,0.002-4.317,0.396
			c-0.21-2.211-1.026-6.868-2.516-10.027c0.308-0.565,0.975-1.523,2.127-1.902c1.43-0.471,3.249,0.023,5.403,1.471
			C141.068,70.504,142.155,71.967,142.276,73.495z M129.188,57.625c1.948-0.269,3.388,0.101,4.399,1.131
			c1.847,1.879,1.798,5.465,1.675,7.027c-0.771-0.066-1.503,0.013-2.189,0.242c-1.179,0.395-1.995,1.157-2.534,1.863
			c-0.476-0.648-0.999-1.13-1.576-1.363c-0.282-0.115-0.57-0.178-0.857-0.193c-0.391-1.031-1.557-3.141-4.879-5.156
			c-0.069-0.225-0.136-0.641,0.099-1.098C123.665,59.417,124.88,58.216,129.188,57.625z M122.98,54.35
			c1.05,0.109,1.832,1.227,2.362,2.357c-1.836,0.627-3.042,1.505-3.596,2.627c-0.188,0.381-0.274,0.758-0.307,1.112
			c-0.348-0.05-0.654-0.035-0.925,0.019c-0.692-1.146-1.373-2.123-2.044-2.938C119.405,56.275,121.339,54.171,122.98,54.35z
			 M113.19,56.234c1.631-0.274,3.65,1.515,5.854,5.163c-0.589,0.722-1.319,2.161-1.426,4.869c-0.377-0.182-0.777-0.331-1.203-0.436
			c-0.878-0.212-1.706-0.043-2.396,0.492c-0.34,0.264-0.631,0.609-0.88,1.01c-1.086-0.865-2.965-2.264-4.751-3.121
			C108.998,61.71,110.718,56.649,113.19,56.234z M104.482,54.563c0.927-0.298,2.329,0.71,3.951,2.836l0.076,0.088
			c0.125,0.125,0.27,0.289,0.397,0.438c-1.201,2.082-1.9,4.563-2.206,5.846c-0.287,0.037-0.562,0.139-0.813,0.309
			c-0.275,0.186-0.511,0.46-0.719,0.789c-1.279-0.994-2.519-1.344-3.693-1.02c-0.01,0.003-0.019,0.008-0.025,0.01
			C101.716,59.985,102.732,55.125,104.482,54.563z M101.942,65.529c0.709-0.195,1.556,0.146,2.521,1.008
			c-0.41,1.428-0.575,3.129-0.639,4.421c-0.587-0.318-1.285-0.641-2.132-0.955c-0.495-0.185-0.998-0.252-1.493-0.211
			c-0.242-0.256-0.501-0.512-0.775-0.752C99.784,67.886,100.656,65.883,101.942,65.529z M96.93,69.62
			c0.004-0.001,0.396-0.137,1.472,0.848c-0.852,0.596-1.549,1.514-2.105,2.474C96.292,71.173,96.515,69.818,96.93,69.62z
			 M93.886,78.293c0.683-0.37,1.859,0.051,3.354,1.179c-0.846,1.251-1.234,3.599-1.407,5.188c-0.97-0.41-2.305-0.883-3.264-0.87
			C92.494,81.735,92.722,78.922,93.886,78.293z M92.718,85.529c0.666,0.044,1.871,0.483,2.84,0.915
			c-2.261,2.214-3.324,7.321-3.604,8.887c-0.085,0.011-0.161,0.031-0.241,0.045C90.997,93.79,88.847,88.186,92.718,85.529z
			 M91.082,97.618c0.131-0.17,0.514-0.663,1.738-0.57c0.878,0.855,1.583,1.415,2.104,1.775c-0.713,1.083-1.127,2.275-1.325,2.961
			c-0.499,0.121-0.962,0.389-1.363,0.764c-0.392,0.367-0.707,0.841-0.965,1.368C90.591,101.536,90.192,98.768,91.082,97.618z
			 M90.602,111.071c0.269,0.594,0.665,1.416,1.229,2.578c0.258,0.533,0.905,1.863,1.351,2.75c-0.231,0.186-0.423,0.381-0.575,0.58
			C91.376,114.766,90.295,112.204,90.602,111.071z M93.72,118.841c0,0-0.006-0.098,0-0.136c0.024-0.23,0.101-0.533,0.411-0.834
			c0,0,2.419,0.063,3.345,0.555c0.086,0.044,0.158,0.092,0.215,0.145c1.238,1.141,1.469,2.944,1.51,3.453
			c-0.121,0.31,0.569,3.788,1.556,4.959l-1.277-0.207C97.1,124.75,93.635,120.987,93.72,118.841z M104.021,127.741
			c-1.404-1.123-3.399-3.262-3.282-4.711c0.017-0.205,0.065-0.829,1.171-1.42l0.104-0.066c0.879-0.643,1.571-1.223,2.038-1.636
			c1.528,1.722,5.569,6.254,7.275,7.963c0.222,0.248,0.404,0.511,0.552,0.763L104.021,127.741z M113.887,128.787
			c-0.221-0.556-0.62-1.367-1.279-2.099l-0.03-0.033c-1.667-1.667-5.831-6.34-7.292-7.985c0.263-0.321,0.552-0.71,0.882-1.149
			c1.438-1.927,3.845-5.15,5.944-4.766c0.88,0.16,2.071,1.014,3.338,3.764c0.324,1.164,0.77,2.43,1.321,3.783
			c-1.989,1.422-2.92,2.95-2.76,4.549c0.164,1.636,1.446,2.949,2.771,3.889L113.887,128.787z M120.343,128.704
			c-1.314-0.532-4.411-2.168-4.596-4.028c-0.13-1.295,1.307-2.507,2.544-3.303c1.65-0.912,3.38-2.324,4.212-3.039l2.626,1.688
			l0.145,0.034c0.011,0.002,1.067,0.273,1.505,1.155c0.327,0.662,0.243,1.554-0.248,2.653c-0.438,0.98-0.889,1.804-1.317,2.489
			l-2.184,2.62L120.343,128.704z M139.75,123.232c-0.336,0.932-4.816,3.6-9.879,5.89l-4.439-0.074c0.367-0.447,0.773-1,1.199-1.673
			c0,0,8.541-5.282,8.829-5.581c2.831-1.172,3.749-0.764,4.013-0.527c0.499,0.443,0.311,1.58,0.205,1.94L139.75,123.232z
			 M140.877,120.215c-0.071-0.086-0.151-0.169-0.239-0.246c-0.528-0.475-1.229-0.711-2.109-0.711c-0.651,0-1.402,0.129-2.255,0.387
			l0.748-1.316c1.749-3.085,4.808-6.992,6.805-7.239C143.116,114.16,141.825,117.759,140.877,120.215z M143.041,105.739
			c-0.141,0.023-0.656,0.059-0.656,0.114c0-0.005,0-0.009,0-0.014c0-2.011-1.514-3.437-2.629-4.312l0.304-0.238
			c3.089-4.402,4.332-5.208,4.701-5.354C145.166,96.921,144.361,101.294,143.041,105.739z"/>
		<g>
			<path fill="#427C62" d="M97.901,50.659c0,0-3.269,12.859,1.308,18.744c1.091-5.885,2.979-12.207,5.486-12.207
				c0.218,1.744,4.758,8.138,6.829,8.791c0-1.562,2.543-7.482,2.543-7.482s4.359,4.65,6.321,5.74
				c0.653,0.654-2.106-9.519,4.432-8.647c6.539,0.873,8.973,3.451,6.467,9.663c2.615-2.834,5.521-8.935,2.033-12.857
				c-3.488-3.924-6.213-6.758-6.213-6.758s13.188,9.154,12.533,13.077c0.547-7.301-5.449-15.147-13.076-16.999
				c-3.16-2.508-3.814-2.508-3.814-2.508s18.271-9.52,21.542,12.387c0.763-2.289,4.831-27.426-23.724-14.239
				C114.358,40.196,97.901,50.659,97.901,50.659z"/>
			<path fill="#529972" d="M71.855,36.491c0,0,8.719-18.743,37.707-1.743c3.923-0.872,33.566-12.641,34.001,3.706
				c-1.743-0.872-10.897-8.719-22.45-0.655c2.399-0.872,32.041-5.449,34.222,12.86c-4.796-2.615-14.387-10.898-26.374-9.373
				c3.488,1.09,21.36,3.27,11.987,20.487c-1.09-4.358-1.961-13.513-11.987-16.128c3.052,2.615,15.257,13.077,7.411,21.142
				c-0.654-3.052-1.309-11.115-6.321-13.948c0.436,4.795-1.308,10.896-1.308,10.896s-9.591-10.896-10.245-15.475
				c1.745,6.976-0.653,17.656-0.653,17.656s-5.013-7.631-5.23-10.681c-0.219-3.052,0-6.757,0-6.757l-2.833,13.294
				c0,0-2.835-9.151,0.435-12.204c-1.743,1.743-10.243,12.642-10.243,19.398c-1.744-5.232-3.705-14.822-1.744-16.564
				c-1.525,0.436-6.975,7.628-0.436,14.384c-2.834-1.524-8.938-11.987-1.962-19.397c-3.705,2.18-11.77,5.014-9.373,22.668
				c-1.962-4.577-4.358-24.848,6.539-28.334c2.397-0.219,3.271-7.848,11.988-5.015C98.664,33.657,90.164,24.721,71.855,36.491z"/>
			<path fill="#55BB91" d="M105.857,32.999c0,0-16.275-19.942-26.735-5.7c0.87-4.36,2.324-14.33,27.026-2.417
				c-0.291-2.615-7.267-23.291-17.437-24.455c8.136-1.162,20.924-1.767,28.189,23.808c1.161,2.325,1.161,3.768,1.161,3.768
				s31.098-31.683,46.5-13.083c-0.583,3.195-7.266,13.076-7.266,13.076l-0.873-12.208c0,0-2.797-7.665-34.766,14.712
				c3.198,0.291,37.673,1.27,41.451,25.101c-2.616-2.905-6.976-17.728-25.865-20.343c-12.533-2.361-16.131,2.65-16.131,2.65
				s-7.953-5.558-12.75,0.109c-2.324-0.58-18.489-6.939-29.241,40.139c-1.745-9.299,6.102-46.156,23.829-45.156
				C104.404,32.999,105.857,32.999,105.857,32.999z"/>
			<path fill="#529972" d="M155.552,9.462c0,0,5.886,0.873,9.011,5.888c-1.164,3.775-7.267,13.186-7.267,13.186L155.552,9.462z"/>
			<path fill="#55BB91" d="M105.049,38.885c0,0-6.855-1.114-10.691,7.517c2.354-1.147,9.203-6.468,13.072-5.888
				S105.049,38.885,105.049,38.885z"/>
			<path fill="#529972" d="M109.214,31.931c0,0-0.913-5.942-9.042-6.798c1.573,1.634,7.781,5.853,8.337,9.193
				S109.214,31.931,109.214,31.931z"/>
			<path fill="#55BB91" d="M123.147,53.856c0,0,4.649,5.666,5.085,7.266c0.872-5.086,0.872-7.992,0-10.026
				c-0.87-2.034-6.248-5.812-6.248-5.812l-3.923-0.873L123.147,53.856z"/>
		</g>
	</g>
	<g>
		<path fill="#CE7436" d="M9.258,101.556L8.701,81.195c0-0.156,0.039-0.43,0.117-0.82c0.762,0,1.24,0.527,1.436,1.582
			c0.176,0.918,0.264,3.477,0.264,7.676s0.146,10.669,0.439,19.409s0.439,13.823,0.439,15.249c0.176,0.352,0.264,0.649,0.264,0.894
			s-0.112,0.557-0.337,0.938s-0.474,0.571-0.747,0.571c-0.566,0-0.85-0.439-0.85-1.318l0.059-1.377
			c0-6.152-0.195-13.018-0.586-20.596l-0.381,0.059l-2.285-0.293c-1.992,0-3.408,0.244-4.248,0.732
			c0,2.324,0.171,5.781,0.513,10.371s0.513,8.047,0.513,10.371c0,0.605-0.205,0.908-0.615,0.908c-0.508,0-0.835-0.229-0.981-0.688
			s-0.259-1.836-0.337-4.131s-0.132-4.771-0.161-7.427s-0.073-4.355-0.132-5.098C0.361,98.441,0,89.32,0,80.843l0.967-0.469
			l0.791,0.645c-0.176,1.484-0.264,2.969-0.264,4.453L1.992,97.66l-0.059,2.373c0,0.801,0.078,1.504,0.234,2.109l7.031-0.469
			L9.258,101.556z"/>
		<path fill="#CE7436" d="M18.076,125.257l0.059-1.523L17.93,123.5c0.293-0.801,0.439-1.621,0.439-2.461l-0.293-7.91l0.41-18.076
			l-0.234-7.178c0-1.133,0.576-1.699,1.729-1.699c0.449,0,0.771,0.127,0.967,0.381c0.137,0.039,0.713,0.117,1.729,0.234
			c2.461,0.273,3.721,0.771,3.779,1.494c0,0.312-0.381,0.693-1.143,1.143c-2.207-0.723-3.828-1.104-4.863-1.143l-0.293,0.352
			c0.039,0.566,0.059,1.426,0.059,2.578l-0.234,9.316c0,1.113,0.283,1.67,0.85,1.67l2.021-0.117c1.523,0,2.305,0.361,2.344,1.084
			c0,0.41-0.103,0.771-0.308,1.084s-0.571,0.469-1.099,0.469s-0.918-0.156-1.172-0.469l-1.963-0.293h-0.264l-0.293,0.293v0.176
			c0.078,1.035,0.117,2.617,0.117,4.746l-0.117,8.525c0,3.984,0.273,6.191,0.82,6.621c0.352,0.293,0.996,0.439,1.934,0.439
			l2.227-0.117c1.172,0,1.758,0.264,1.758,0.791c0,0.723-0.869,1.084-2.607,1.084h-4.951
			C18.535,126.517,18.135,126.097,18.076,125.257z"/>
		<path fill="#CE7436" d="M41.689,125.433c0,0.508-0.342,0.762-1.025,0.762c-2.402,0.254-4.18,0.381-5.332,0.381l-0.117,0.117H33.34
			c-0.566,0-0.908-0.459-1.025-1.377c0.098-0.449,0.146-1.055,0.146-1.816l0.234-25.84c0-3.379,0.02-5.356,0.059-5.933
			s0.068-1.206,0.088-1.89s0.039-1.318,0.059-1.904l0.029-0.908c-0.02-0.156,0.093-0.298,0.337-0.425s0.503-0.146,0.776-0.059
			s0.439,0.308,0.498,0.659l-0.117,22.734v8.525c-0.039,1.328-0.059,3.428-0.059,6.299c1.035,0,3.057-0.098,6.064-0.293
			c0.254-0.039,0.527,0.015,0.82,0.161S41.689,125.042,41.689,125.433z M45.938,124.525l6.064,0.059
			c0.508-0.059,0.894,0.044,1.157,0.308s0.396,0.562,0.396,0.894s-0.371,0.557-1.113,0.674c-1.152-0.039-2.998-0.059-5.537-0.059
			l-0.117,0.117c-0.449-0.039-0.938-0.059-1.465-0.059c-0.82,0-1.289-0.469-1.406-1.406c-0.039-0.352-0.059-0.947-0.059-1.787
			l0.234-25.488c0-3.379,0.039-5.527,0.117-6.445l0.117-4.248c0-0.234,0.142-0.352,0.425-0.352s0.718,0.117,1.304,0.352
			c0,1.816,0.049,3.398,0.146,4.746l-0.205,18.223l0.117,5.127l-0.176,0.469l0.059-0.059l-0.059,0.469
			c0,0.332,0.059,0.615,0.176,0.85L45.938,124.525z"/>
		<path fill="#CE7436" d="M72.393,102.552l0.117,7.148c0,9.004-1.445,14.482-4.336,16.436c-0.703,0.488-1.494,0.732-2.373,0.732
			c-4.688,0-7.031-7.363-7.031-22.09c0-5.684,0.391-10.615,1.172-14.795c0.586-3.047,1.475-4.57,2.666-4.57
			c0.273,0,0.532,0.107,0.776,0.322s0.576,0.396,0.996,0.542s0.996,0.288,1.729,0.425s1.255,0.234,1.567,0.293
			c0.801,0.137,1.572,0.908,2.314,2.314c1.68,2.852,2.52,7.168,2.52,12.949L72.393,102.552z M60.645,104.72l0.117,4.746
			c0,3.809,0.43,7.432,1.289,10.869c0.312,1.289,0.776,2.412,1.392,3.369s1.318,1.436,2.109,1.436s1.484-0.293,2.08-0.879
			s1.069-1.401,1.421-2.446s0.645-2.109,0.879-3.193s0.4-2.3,0.498-3.647c0.156-2.148,0.234-4.062,0.234-5.742l-0.674-14.18
			l-0.234-0.469l0.117-0.293c0-1.738-0.488-3.252-1.465-4.541s-2.168-1.934-3.574-1.934h-2.52c-0.332,0-0.625,1.782-0.879,5.347
			s-0.42,5.542-0.498,5.933L60.645,104.72z"/>
		<path fill="#CE7436" d="M78.311,124.583c0-0.391,0.205-0.796,0.615-1.216s0.859-0.63,1.348-0.63s0.884,0.21,1.187,0.63
			s0.454,0.942,0.454,1.567c0,0.996-0.498,1.523-1.494,1.582c-0.059-0.176-0.186-0.283-0.381-0.322
			C79.375,126.097,78.799,125.56,78.311,124.583z M80.039,116.292l-0.059-0.234v-14.385l0.146-10.254l-0.439-9.434
			c0-0.41,0.21-0.781,0.63-1.113s0.859-0.498,1.318-0.498s0.688,0.254,0.688,0.762c0,3.203-0.21,7.983-0.63,14.341
			s-0.63,11.138-0.63,14.341l0.059,2.637c0,1.602-0.156,2.783-0.469,3.545l0.176,0.293H80.039z"/>
	</g>
	<g>
		<path fill="#CE7436" d="M29.938,51.453l-0.059,0.234c0,0.02,0.459,1.562,1.377,4.629c0.605,2.383,0.908,4.219,0.908,5.508
			s-0.151,2.549-0.454,3.779s-0.742,2.412-1.318,3.545s-1.367,2.065-2.373,2.798s-1.973,1.099-2.9,1.099s-1.587-0.02-1.978-0.059
			c-1.152-0.117-1.963-0.596-2.432-1.436c0-0.488,0.21-0.732,0.63-0.732s0.986,0.151,1.699,0.454s1.392,0.454,2.036,0.454
			s1.333-0.371,2.065-1.113s1.294-1.66,1.685-2.754c0.781-2.227,1.172-4.312,1.172-6.255s-0.293-3.921-0.879-5.933
			s-1.304-3.848-2.153-5.508s-1.694-3.32-2.534-4.98c-2.012-3.945-3.018-7.676-3.018-11.191c0-2.91,0.879-5.234,2.637-6.973
			c0.957-0.918,2.08-1.377,3.369-1.377c0.41,0,0.938,0.161,1.582,0.483s1.035,0.659,1.172,1.011L29.82,27.81
			c-0.898,0-1.553-0.205-1.963-0.615c-0.957,0-1.777,0.361-2.461,1.084c-1.289,1.328-1.934,3.066-1.934,5.215
			c0,1.582,0.127,2.896,0.381,3.94s0.449,1.841,0.586,2.388s0.381,1.24,0.732,2.08s0.61,1.465,0.776,1.875s0.488,1.084,0.967,2.021
			s0.791,1.543,0.938,1.816s0.508,0.933,1.084,1.978S29.84,51.257,29.938,51.453z"/>
		<path fill="#CE7436" d="M45.787,62.791l-1.582,0.059c-0.566-0.234-1.191-0.352-1.875-0.352s-1.055,0.02-1.113,0.059
			s-0.098,0.107-0.117,0.205s-0.039,0.166-0.059,0.205l-0.117,1.201c-0.078,1.016-0.264,2.236-0.557,3.662
			c-0.547,2.793-1.123,4.189-1.729,4.189c-0.254,0-0.518-0.107-0.791-0.322s-0.41-0.449-0.41-0.703
			c0.508-1.504,1.035-3.779,1.582-6.826s0.889-4.946,1.025-5.698s0.391-2.271,0.762-4.556s0.615-3.789,0.732-4.512
			s0.435-2.285,0.952-4.688s0.83-3.975,0.938-4.717s0.229-1.748,0.366-3.018c0.332-3.125,0.596-4.863,0.791-5.215l0.82,0.059
			c0.488,0,0.85-0.117,1.084-0.352c0.254,0,0.498,0.083,0.732,0.249s0.352,0.386,0.352,0.659c0,1.914,0.244,5.615,0.732,11.104
			s0.874,9.038,1.157,10.649s0.61,3.193,0.981,4.746s0.557,2.739,0.557,3.56l-0.293,0.82c0,0.898,0.166,2.222,0.498,3.97
			s0.498,2.979,0.498,3.691s-0.156,1.157-0.469,1.333c-0.82,0-1.323-0.117-1.509-0.352s-0.278-0.61-0.278-1.128
			s-0.034-1.152-0.103-1.904s-0.137-1.353-0.205-1.802s-0.186-1.157-0.352-2.124s-0.269-1.587-0.308-1.86
			C47.721,62.888,46.822,62.791,45.787,62.791z M41.568,59.832c0,0.41,0.479,0.752,1.436,1.025c1.465,0.41,3.086,0.615,4.863,0.615
			h0.615c-0.254-0.781-0.381-1.68-0.381-2.695V57.4c0-2.48-0.308-6.094-0.923-10.84s-0.942-8.281-0.981-10.605
			c-2.09,10.332-3.384,16.714-3.882,19.146S41.568,59.109,41.568,59.832z"/>
		<path fill="#CE7436" d="M63.043,72.458c-0.566,0-0.85-0.488-0.85-1.465l0.293-11.572l-0.41-4.863c0-0.645-0.122-1.582-0.366-2.812
			s-0.366-2.08-0.366-2.549s-0.054-0.986-0.161-1.553s-0.259-1.25-0.454-2.051s-0.337-1.421-0.425-1.86s-0.317-1.636-0.688-3.589
			c-0.801-4.082-1.479-7.056-2.036-8.921s-0.835-3.052-0.835-3.56c0-0.82,0.4-1.23,1.201-1.23l0.703,0.469
			c0.098,1.621,0.62,4.775,1.567,9.463s1.685,7.393,2.212,8.115c0.625-1.836,1.055-4.136,1.289-6.899s0.43-4.858,0.586-6.284
			c0.352-3.125,0.908-4.688,1.67-4.688c0.605,0,0.908,0.215,0.908,0.645c0,0.312-0.078,0.747-0.234,1.304s-0.269,1.05-0.337,1.479
			s-0.293,1.709-0.674,3.838s-0.659,3.73-0.835,4.805c-0.527,3.184-0.791,6.104-0.791,8.76l0.176,1.963l-0.381,0.908v0.469
			l0.439,7.207c0,5.41-0.039,9.453-0.117,12.129l0.176,0.176l0.059,0.41c0,0.449-0.112,0.854-0.337,1.216
			S63.473,72.458,63.043,72.458z"/>
	</g>
</g>
</svg>
