<svg version="1.1" id="Layer_1" xmlns="http://www.w3.org/2000/svg" xmlns:xlink="http://www.w3.org/1999/xlink"
	 preserveAspectRatio="xMinYMin meet" width="100%" viewBox="0 0 1024 74">
<path id="wave_32_" fill="#7AADF7" d="M31.742,65.672c10.472,11.188,21.836,10.99,31.741,0.09c9.924-10.921,21.586-10.939,32.504,0
	c10.396,10.414,21.331,10.646,31.742,0.222c10.908-10.923,21.84-11.161,32.504-0.044c10.1,10.524,21.586,10.468,31.743,0
	c10.976-11.312,21.324-11.363,31.997-0.178c10.157,10.646,21.65,10.902,32.062,0.002l0.056-0.039
	c9.345-10.856,21.524-10.965,31.681-0.114c10.473,11.186,21.809,11.02,31.713,0.12c9.921-10.922,21.568-10.924,32.488,0.015
	c10.396,10.414,21.323,10.655,31.734,0.229c10.907-10.922,21.834-11.155,32.499-0.039c10.1,10.524,21.583,10.47,31.741,0.002
	c10.975-11.312,21.353-11.363,32.027-0.177C490.132,76.406,502,76.662,512,65.762v0.089c10-11.028,21.553-11.028,31.711-0.179
	c10.473,11.188,21.824,10.99,31.729,0.09c9.923-10.921,21.577-10.939,32.496,0c10.396,10.414,21.327,10.646,31.738,0.222
	c10.909-10.923,21.837-11.161,32.503-0.044c10.099,10.524,21.583,10.468,31.74,0c10.977-11.312,21.324-11.363,31.996-0.178
	c10.158,10.646,21.65,10.902,32.062,0.002l0.058-0.039c9.344-10.856,21.523-10.965,31.682-0.114
	c10.473,11.186,21.808,11.02,31.712,0.12c9.921-10.922,21.568-10.924,32.487,0.015c10.396,10.414,21.324,10.655,31.734,0.229
	c10.909-10.922,21.836-11.155,32.501-0.039c10.099,10.524,21.583,10.47,31.74,0.002c10.975-11.312,21.384-11.363,32.056-0.177
	C1002.102,76.406,1014,76.662,1024,65.762V0H512H0v65.851C9,54.822,21.583,54.822,31.742,65.672z"/>
</svg>
